<?xml version="1.0" encoding="utf-8"?>
<!-- Generator: Adobe Illustrator 24.0.1, SVG Export Plug-In . SVG Version: 6.00 Build 0)  -->
<svg version="1.1" id="Layer_1" xmlns="http://www.w3.org/2000/svg" xmlns:xlink="http://www.w3.org/1999/xlink" x="0px" y="0px"
	 viewBox="0 0 48 48" style="enable-background:new 0 0 48 48;" xml:space="preserve">
<circle style="fill:#DB8509;" cx="24" cy="38" r="4"/>
<path style="fill:#BC6F0A;" d="M28,38c0,0.3,0,0.6-0.1,0.9C26.4,39,25.1,39,24,39s-2.4,0-3.9-0.1C20,38.6,20,38.3,20,38
	c0-0.4,0-0.8,0.2-1.1C21.4,37,22.7,37,24,37s2.6,0,3.8-0.1C28,37.3,28,37.6,28,38z"/>
<path style="fill:#DB8509;" d="M26,11c0,1.1-0.9,2-2,2l0,0c-1.1,0-2-0.9-2-2V7c0-1.1,0.9-2,2-2l0,0c1.1,0,2,0.9,2,2V11z"/>
<path style="fill:#FFC107;" d="M33,33V16.8c0-5-4-9-9-9s-9,4-9,9V33H33z"/>
<path style="fill:#FFC107;" d="M41,33c0,2.2-7.1,4-17,4S7,35.2,7,33s7.1-4,17-4S41,30.8,41,33z"/>
<path style="fill:#FFC107;" d="M7,33c0-2,8-9,8-12s18-3,18,0s8,10,8,12S7,35,7,33z"/>
<path style="fill:#FFE082;" d="M9.3,29.4C8.8,30,8.3,30.6,8,31.1c1.6,0.7,8.1,3.1,16.6,3.1c4.7,0,10.1-0.8,15.5-3.1
	c-0.4-0.5-0.8-1-1.3-1.6C25.7,34.7,12.7,30.7,9.3,29.4z"/>
</svg>
