<?xml version="1.0" encoding="utf-8"?>
<!-- Generator: Adobe Illustrator 24.0.1, SVG Export Plug-In . SVG Version: 6.00 Build 0)  -->
<svg version="1.1" id="Layer_1" xmlns="http://www.w3.org/2000/svg" xmlns:xlink="http://www.w3.org/1999/xlink" x="0px" y="0px"
	 viewBox="0 0 48 48" style="enable-background:new 0 0 48 48;" xml:space="preserve">
<style type="text/css">
	.st0{fill:#FBC02D;}
	.st1{fill:#9FA8DA;}
	.st2{fill:#5C6BC0;}
	.st3{fill:#FFF59D;}
	.st4{fill:#FFEA00;}
</style>
<path class="st0" d="M38,20c0-7.7-6.3-14-14-14s-14,6.3-14,14c0,5,2.6,9.3,6.5,11.8c0.9,1.1,1.5,2.5,1.5,3.9V36h12v-0.1
	c0-1.5,0.5-2.9,1.4-4C35.4,29.4,38,25,38,20z"/>
<path class="st1" d="M26,44h-4c-2.2,0-4-1.8-4-4v-5h12v5C30,42.2,28.2,44,26,44"/>
<path class="st2" d="M26.8,43.9C26.5,45.1,25.3,46,24,46s-2.5-0.9-2.8-2.1C21.4,44,21.7,44,22,44h4C26.3,44,26.6,44,26.8,43.9z
	 M30,40l-11.6,1.6c0.3,0.7,0.9,1.4,1.6,1.8l9.4-1.3C29.8,41.5,30,40.8,30,40 M18,37.7v2L30,38v-2L18,37.7z"/>
<path class="st3" d="M30.6,18.2l-3-2c-0.3-0.2-0.8-0.2-1.1,0L24,17.8l-2.4-1.6c-0.3-0.2-0.8-0.2-1.1,0l-3,2
	c-0.2,0.2-0.4,0.4-0.4,0.7s0,0.6,0.2,0.8l3.8,4.7V35h2V24c0-0.2-0.1-0.4-0.2-0.6l-3.3-4.1l1.5-1l2.4,1.6c0.3,0.2,0.8,0.2,1.1,0
	l2.4-1.6l1.5,1l-3.3,4.1C25.1,23.6,25,23.8,25,24v11h2V24.4l3.8-4.7c0.2-0.2,0.3-0.5,0.2-0.8S30.8,18.3,30.6,18.2z"/>
<path class="st4" d="M10.9,32.4c-0.4-0.4-0.4-1,0-1.4l0,0c0.4-0.4,1-0.4,1.4,0l0,0c0.4,0.4,0.4,1-0.1,1.4l0,0
	c-0.2,0.2-0.4,0.3-0.7,0.3l0,0C11.4,32.7,11.1,32.6,10.9,32.4z M35.7,32.4c-0.4-0.4-0.4-1,0-1.4l0,0c0.4-0.4,1-0.4,1.4-0.1l0,0
	c0.4,0.4,0.4,1,0,1.4l0,0c-0.2,0.2-0.5,0.3-0.7,0.3l0,0C36.1,32.7,35.9,32.6,35.7,32.4z M8.4,29c-0.3-0.5-0.1-1.1,0.4-1.4l0,0
	c0.5-0.3,1.1-0.1,1.4,0.4l0,0c0.3,0.5,0.1,1.1-0.4,1.4l0,0c-0.2,0.1-0.3,0.1-0.5,0.1l0,0C8.9,29.5,8.6,29.3,8.4,29z M38.2,29.4
	c-0.5-0.3-0.6-0.9-0.4-1.4l0,0c0.3-0.5,0.9-0.7,1.4-0.4l0,0c0.5,0.3,0.6,0.9,0.4,1.4l0,0l0,0l0,0c-0.2,0.3-0.5,0.5-0.9,0.5l0,0
	C38.5,29.5,38.4,29.4,38.2,29.4z M6.8,25.2c-0.2-0.5,0.1-1.1,0.7-1.2l0,0c0.5-0.2,1.1,0.1,1.2,0.7l0,0c0.1,0.5-0.1,1.1-0.7,1.2l0,0
	c-0.1,0-0.2,0-0.3,0l0,0C7.3,25.9,6.9,25.6,6.8,25.2z M40,25.8c-0.5-0.2-0.8-0.7-0.7-1.2l0,0c0.2-0.5,0.7-0.8,1.3-0.7l0,0
	c0.5,0.1,0.8,0.7,0.7,1.2l0,0c-0.1,0.4-0.5,0.7-1,0.7l0,0C40.2,25.9,40.1,25.9,40,25.8z M6,21.1C6,21.1,6,21,6,21.1L6,21.1
	C6,21,6,21,6,21.1L6,21.1L6,21.1L6,21.1C6,20.5,6.4,20,7,20l0,0c0.6,0,1,0.4,1.1,0.9l0,0l0,0l0,0l0,0l0,0c0,0.5-0.4,1-0.9,1.1l0,0
	c0,0,0,0-0.1,0l0,0C6.5,22,6.1,21.6,6,21.1z M40.9,22c-0.6,0-1-0.5-1-1.1l0,0c0-0.5,0.5-1,1.1-0.9l0,0c0.5,0,1,0.5,0.9,1.1l0,0
	C41.9,21.6,41.5,22,40.9,22L40.9,22L40.9,22z M39.8,17.2c-0.1-0.5,0.3-1.1,0.8-1.2l0,0c0.5-0.1,1.1,0.3,1.2,0.8l0,0l0,0l0,0
	c0.1,0.6-0.3,1.1-0.8,1.2l0,0c-0.1,0-0.1,0-0.2,0l0,0C40.3,18,39.8,17.7,39.8,17.2z M7.1,18c-0.5-0.1-0.9-0.6-0.8-1.2l0,0
	c0.1-0.5,0.6-0.9,1.1-0.8l0,0c0.6,0.1,0.9,0.6,0.8,1.2l0,0C8.1,17.7,7.7,18,7.1,18L7.1,18C7.2,18,7.1,18,7.1,18z M38.7,13.7
	c-0.2-0.5,0-1.1,0.5-1.3l0,0c0.5-0.2,1.1,0,1.3,0.5l0,0c0.2,0.5,0,1.1-0.5,1.3l0,0c-0.1,0-0.3,0.1-0.4,0.1l0,0
	C39.2,14.3,38.9,14,38.7,13.7z M8,14.1c-0.5-0.2-0.7-0.8-0.5-1.3l0,0c0.2-0.5,0.8-0.7,1.3-0.5l0,0c0.5,0.2,0.7,0.8,0.5,1.3l0,0
	c-0.2,0.4-0.5,0.6-0.9,0.6l0,0C8.3,14.2,8.1,14.2,8,14.1z M36.8,10.4C36.5,10,36.6,9.4,37,9l0,0c0.4-0.3,1.1-0.2,1.4,0.2l0,0
	c0.3,0.4,0.2,1.1-0.2,1.4l0,0c-0.2,0.1-0.4,0.2-0.6,0.2l0,0C37.3,10.8,37,10.7,36.8,10.4z M9.8,10.6c-0.4-0.3-0.5-0.9-0.2-1.4l0,0
	c0.3-0.4,1-0.5,1.4-0.2l0,0c0.4,0.3,0.5,1,0.2,1.4l0,0c-0.2,0.3-0.5,0.4-0.8,0.4l0,0C10.2,10.8,10,10.8,9.8,10.6z M34.3,7.8
	c-0.4-0.4-0.5-1-0.1-1.4l0,0c0.4-0.4,1-0.5,1.4-0.1l0,0c0.4,0.4,0.5,1,0.1,1.4l0,0C35.5,7.9,35.2,8,34.9,8l0,0
	C34.7,8,34.5,7.9,34.3,7.8z M12.3,7.6c-0.4-0.4-0.3-1,0.1-1.4l0,0l0,0l0,0c0.4-0.4,1.1-0.3,1.4,0.1l0,0c0.4,0.4,0.3,1-0.1,1.4l0,0
	C13.5,7.9,13.3,8,13.1,8l0,0C12.8,8,12.5,7.8,12.3,7.6z M31.2,5.7L31.2,5.7c-0.5-0.2-0.7-0.9-0.4-1.3l0,0c0.3-0.5,0.8-0.7,1.3-0.4
	l0,0l0,0l0,0c0.5,0.3,0.7,0.9,0.4,1.3l0,0c-0.2,0.4-0.5,0.6-0.9,0.6l0,0C31.5,5.8,31.3,5.8,31.2,5.7z M15.5,5.2
	c-0.2-0.5,0-1.1,0.5-1.3l0,0l0,0l0,0c0.5-0.3,1.1-0.1,1.3,0.4l0,0c0.3,0.5,0,1.1-0.4,1.3l0,0c-0.1,0.1-0.3,0.1-0.5,0.1l0,0
	C16,5.8,15.7,5.6,15.5,5.2z M27.7,4.4c-0.5-0.1-0.9-0.7-0.8-1.2l0,0c0.1-0.5,0.7-0.9,1.2-0.8l0,0l0,0l0,0c0.5,0.1,0.9,0.7,0.7,1.2
	l0,0c-0.1,0.5-0.5,0.8-1,0.8l0,0C27.9,4.5,27.8,4.4,27.7,4.4z M19.1,3.7c-0.1-0.5,0.2-1.1,0.8-1.2l0,0c0.5-0.1,1.1,0.2,1.2,0.7l0,0
	c0.1,0.5-0.2,1.1-0.7,1.2l0,0c-0.1,0-0.2,0-0.2,0l0,0C19.6,4.4,19.2,4.1,19.1,3.7z M23,3c0-0.6,0.4-1,1-1l0,0l0,0l0,0
	c0.5,0,1,0.4,1,1l0,0c0,0.5-0.5,1-1,1l0,0C23.5,4,23,3.5,23,3z"/>
</svg>
