<?xml version="1.0" encoding="utf-8"?>
<!-- Generator: Adobe Illustrator 24.0.1, SVG Export Plug-In . SVG Version: 6.00 Build 0)  -->
<svg version="1.1" id="Layer_1" xmlns="http://www.w3.org/2000/svg" xmlns:xlink="http://www.w3.org/1999/xlink" x="0px" y="0px"
	 viewBox="0 0 48 48" style="enable-background:new 0 0 48 48;" xml:space="preserve">
<style type="text/css">
	.st0{fill:#673AB7;}
	.st1{fill:#D1C4E9;}
</style>
<path class="st0" d="M39,6H9C7.3,6,6,7.3,6,9v33l8.6-8H39c1.7,0,3-1.3,3-3V9C42,7.3,40.7,6,39,6z"/>
<path class="st1" d="M27,13v6h2c0,3-2,8-2,8h2c0,0,4-6,4-9v-5H27z"/>
<path class="st1" d="M17,13v6h2c0,3-2,8-2,8h2c0,0,4-6,4-9v-5H17z"/>
</svg>
