<?xml version="1.0" encoding="utf-8"?>
<!-- Generator: Adobe Illustrator 24.0.1, SVG Export Plug-In . SVG Version: 6.00 Build 0)  -->
<svg version="1.1" id="Layer_1" xmlns="http://www.w3.org/2000/svg" xmlns:xlink="http://www.w3.org/1999/xlink" x="0px" y="0px"
	 viewBox="0 0 48 48" style="enable-background:new 0 0 48 48;" xml:space="preserve">
<style type="text/css">
	.st0{fill:#FF3D00;}
	.st1{fill:#FFEB3B;}
	.st2{fill:#D1C4E9;}
	.st3{fill:#7E57C2;}
	.st4{fill:#311B92;}
</style>
<path class="st0" d="M8.4,32.9c1.6-1.6,4.1-1.6,5.7,0c1.6,1.6,1.6,4.1,0,5.7c-1.6,1.6-7.8,2.1-7.8,2.1S6.9,34.5,8.4,32.9z"/>
<path class="st1" d="M9.9,34.3c0.8-0.8,2-0.8,2.8,0s0.8,2,0,2.8s-3.5,0.7-3.5,0.7S9.1,35.1,9.9,34.3z"/>
<path class="st2" d="M29.7,8.9C27.5,11,9.2,29.4,9.2,29.4l8.5,8.5c0,0,18.4-18.4,20.5-20.5c1.1-1.1,2-4.4,2.7-7.2l-3.9-3.9
	C34,6.8,30.8,7.7,29.7,8.9z"/>
<path class="st3" d="M21.2,41.4L19,36.4l8.5-8.5l-1.4,8.5L21.2,41.4z M5.6,25.8l4.9,2.1l8.5-8.5l-8.5,1.4L5.6,25.8z M36.9,6.2
	l3.9,3.9c0.6-2.6,0.9-4.8,0.9-4.8S39.5,5.6,36.9,6.2z M17.6,37.8h-2.8l-5.7-5.7v-2.8L17.6,37.8z"/>
<g>
	<path class="st4" d="M29.7,15.3c-1.1,0-2,0.9-2,2s0.9,2,2,2s2-0.9,2-2S30.8,15.3,29.7,15.3z M24.7,20.3c-1.1,0-2,0.9-2,2s0.9,2,2,2
		s2-0.9,2-2S25.8,20.3,24.7,20.3z M19.8,25.2c-1.1,0-2,0.9-2,2s0.9,2,2,2s2-0.9,2-2S20.9,25.2,19.8,25.2z"/>
</g>
</svg>
